<svg version="1.1" id="Layer_1" xmlns="http://www.w3.org/2000/svg" xmlns:xlink="http://www.w3.org/1999/xlink" x="0px" y="0px"
	 width="100%" viewBox="0 0 500 500" enable-background="new 0 0 500 500" xml:space="preserve">
<path fill="#FFFFFF" opacity="1.000000" stroke="none" 
	d="
M272.000000,501.000000 
	C182.666687,501.000000 93.833336,500.974731 5.000194,501.095825 
	C1.576097,501.100494 0.903036,500.423828 0.905301,497.000000 
	C1.013778,333.000092 1.013756,169.000122 0.905337,5.000245 
	C0.903074,1.576941 1.575799,0.903021 4.999878,0.905286 
	C168.999756,1.013775 332.999725,1.013761 496.999634,0.905353 
	C500.422668,0.903090 501.096985,1.575432 501.094727,4.999758 
	C500.986206,168.999634 500.986237,332.999603 501.094604,496.999512 
	C501.096893,500.422272 500.425598,501.102112 497.000275,501.096283 
	C422.167023,500.970001 347.333466,501.000000 272.000000,501.000000 
z"/>
<path fill="#E5E3DE" opacity="1.000000" stroke="none" 
	d="
M123.133026,203.022675 
	C129.271851,204.076660 128.594376,209.622421 129.692932,213.172653 
	C132.011734,220.666428 135.571411,227.602570 138.207886,234.928329 
	C139.625687,238.867844 142.852280,235.399353 145.215454,235.813751 
	C147.216110,236.164597 149.079498,234.914780 148.992996,232.259308 
	C148.862915,228.264740 150.088715,224.192886 149.779572,220.406448 
	C149.044846,211.406860 155.903870,208.387924 161.150162,204.036423 
	C163.186600,202.347336 165.661255,202.588776 167.307983,204.886688 
	C173.585724,213.646866 178.683670,222.962112 177.844299,234.181381 
	C177.487167,238.955109 173.387466,241.304733 169.212967,243.522018 
	C174.597656,248.718277 181.371124,251.411697 186.812485,255.945694 
	C188.594574,257.430603 190.456696,258.884888 191.947205,260.638000 
	C193.867813,262.896912 195.111328,265.388184 192.396652,268.128174 
	C189.510666,271.041107 186.238419,269.616821 184.508896,267.644440 
	C177.872223,260.075806 168.773056,256.219727 160.118912,250.053253 
	C159.948013,254.471802 159.567444,258.176208 160.466293,261.830627 
	C160.914948,263.654694 161.198563,265.466553 160.911789,267.254272 
	C160.566422,269.407013 159.868729,271.520935 157.199875,271.955627 
	C154.517349,272.392578 153.239258,270.784821 152.327042,268.631805 
	C150.028488,263.206848 149.433487,257.455902 149.007385,251.660172 
	C148.894272,250.121368 149.788467,248.131775 147.728180,247.251434 
	C146.512466,246.731964 144.901077,246.521072 143.899063,247.410172 
	C142.048508,249.052155 143.819870,250.868851 144.324677,252.410812 
	C146.340805,258.569489 148.045456,264.779083 149.255844,271.156738 
	C149.995193,275.052582 147.909744,276.976776 144.903534,277.714020 
	C141.556717,278.534790 140.340408,276.186554 139.932968,273.077332 
	C139.003723,265.986328 136.816376,259.196075 134.765305,252.364594 
	C133.821075,249.219604 132.042648,248.564835 129.214569,249.109116 
	C127.266891,249.483978 125.308655,250.013947 123.345284,250.060699 
	C114.960594,250.260391 111.526909,255.889679 109.183861,262.740143 
	C108.319992,265.265869 107.351791,267.809723 104.036720,266.401703 
	C101.146355,265.174103 100.361511,262.679962 101.637985,259.759308 
	C104.831169,252.453079 106.985504,244.753632 109.788605,237.305161 
	C113.259750,228.081558 114.784058,218.106094 117.828827,208.624435 
	C118.728973,205.821304 119.883629,203.832626 123.133026,203.022675 
z"/>
<path fill="#E5E3DE" opacity="1.000000" stroke="none" 
	d="
M296.178772,269.959839 
	C289.462280,267.854279 283.209656,269.751740 276.964569,270.025055 
	C268.650635,270.388947 265.182098,266.282959 266.148468,257.951782 
	C267.663605,244.890320 267.573914,231.775620 266.152527,218.689957 
	C265.812469,215.559280 266.016449,212.421509 265.520569,209.259552 
	C265.097382,206.561035 266.441986,204.100708 269.799835,203.603699 
	C273.077850,203.118484 274.476471,205.274155 274.895111,207.731293 
	C275.838287,213.266571 276.713806,218.868149 276.896057,224.466217 
	C277.215790,234.287567 277.143433,244.129822 276.925262,253.956436 
	C276.840912,257.757050 277.743378,259.412598 281.901123,259.109863 
	C286.873596,258.747772 291.894653,259.109375 296.891510,259.006073 
	C300.261444,258.936401 303.530426,259.037018 306.661346,261.942749 
	C307.795929,252.083908 306.071960,243.127823 305.549500,234.140915 
	C305.165161,227.530151 304.488434,220.936890 304.034119,214.329498 
	C303.818878,211.199326 305.159027,209.060181 308.538788,209.058777 
	C311.976746,209.057327 312.768616,211.340271 313.048279,214.387802 
	C314.606934,231.372284 314.657410,248.467819 316.857910,265.404785 
	C317.201935,268.052917 315.837677,269.973419 313.309082,270.733215 
	C309.925415,271.750031 308.673615,269.214691 307.398010,266.558197 
	C304.868042,271.475159 300.454712,269.692261 296.178772,269.959839 
z"/>
<path fill="#E5E3DE" opacity="1.000000" stroke="none" 
	d="
M325.579468,210.301514 
	C323.467316,214.534164 326.073395,217.717270 327.634094,220.942429 
	C330.182861,226.209473 335.271698,229.160309 339.590363,232.752289 
	C343.028198,235.611664 346.771118,238.101395 350.259583,240.903381 
	C357.167999,246.452286 358.397552,255.445312 352.553833,262.553345 
	C345.706604,270.882019 337.940247,277.731293 325.625916,274.126190 
	C322.553619,273.226776 319.919922,272.292664 320.175140,268.909851 
	C320.434998,265.465149 323.118622,263.337372 326.481873,264.105988 
	C333.626129,265.738800 338.566803,262.874634 342.964844,257.665405 
	C346.475861,253.506744 346.720367,251.392288 342.532684,248.138641 
	C337.159637,243.963989 331.925995,239.618195 326.580353,235.423538 
	C318.518097,229.097214 315.216064,220.650696 313.970459,210.942139 
	C313.476227,207.090073 315.100342,204.105286 318.215393,202.627914 
	C326.966614,198.477585 335.978119,194.849411 345.908600,198.551651 
	C349.145538,199.758423 351.270325,202.223572 350.753723,205.835678 
	C350.328186,208.811157 349.296356,211.720428 345.539001,212.287415 
	C344.556763,212.435638 343.399200,213.113831 342.820374,212.061203 
	C339.041260,205.188614 333.450012,208.509781 328.300385,209.385391 
	C327.489746,209.523209 326.716278,209.879669 325.579468,210.301514 
z"/>
<path fill="#E5E3DE" opacity="1.000000" stroke="none" 
	d="
M190.825638,216.745621 
	C197.040649,212.258255 204.199158,212.298706 210.957794,211.082382 
	C217.775284,209.855453 224.707962,209.282242 231.569016,208.278183 
	C235.436920,207.712143 238.815338,209.597229 238.920700,212.968628 
	C239.039764,216.779037 236.854736,218.923752 233.104523,218.912094 
	C228.934280,218.899124 224.853165,219.503952 220.731552,219.883423 
	C218.046860,220.130600 216.880844,220.793762 216.922455,223.669754 
	C217.113785,236.895172 216.112991,250.144821 217.941803,263.335114 
	C218.353958,266.307800 218.005356,269.248444 214.307327,269.900909 
	C210.675995,270.541626 209.435577,268.016479 208.531235,265.073059 
	C206.760864,259.310913 206.629944,253.323853 206.119019,247.413712 
	C205.718979,242.786133 206.138626,238.093613 205.984726,233.436844 
	C205.876251,230.154282 207.461334,226.013336 205.204239,223.809006 
	C202.900177,221.558762 199.386551,224.592133 196.346939,224.933670 
	C194.109970,225.185043 192.054291,224.999527 190.551575,222.942886 
	C189.069611,220.914627 189.062836,218.992783 190.825638,216.745621 
z"/>
<path fill="#E5E3DE" opacity="1.000000" stroke="none" 
	d="
M368.976318,225.437775 
	C367.696838,221.491623 365.280426,223.218063 363.233154,223.811249 
	C356.883972,225.650909 353.198151,224.748779 352.182648,220.977798 
	C351.295380,217.682999 353.968567,214.668243 360.288239,213.537506 
	C372.159180,211.413513 384.123016,209.792953 396.070740,208.124420 
	C399.179504,207.690292 401.436157,209.705887 401.783203,212.523865 
	C402.237640,216.213715 399.842407,218.643646 396.224701,218.831909 
	C391.912323,219.056351 387.642212,219.518555 383.352386,219.897202 
	C379.882477,220.203476 379.013306,221.251923 379.269714,224.885391 
	C379.697876,230.952927 379.167725,237.090591 378.994476,243.197403 
	C378.805481,249.856888 379.384674,256.446533 380.808929,262.947906 
	C381.554535,266.351379 379.951111,268.654327 377.118378,269.704865 
	C374.091461,270.827362 372.573792,268.405518 371.576569,265.990997 
	C369.514374,260.998047 369.372559,255.615448 369.127258,250.370361 
	C368.746277,242.224579 369.006195,234.048798 368.976318,225.437775 
z"/>
<path fill="#E8E7E2" opacity="1.000000" stroke="none" 
	d="
M245.106598,317.685455 
	C244.086472,319.713348 246.417450,319.828186 246.471146,321.206238 
	C248.399338,320.003662 247.312683,316.686432 249.863480,316.548492 
	C251.826828,316.442322 251.306534,319.177551 252.183823,319.822784 
	C256.946411,313.584473 260.182587,318.050598 263.408325,321.656769 
	C263.664490,320.878937 263.834198,320.587646 263.845428,320.290405 
	C263.891754,319.062561 261.380768,318.584137 262.827637,316.953308 
	C263.455109,316.246063 264.277863,316.148651 265.024750,316.793549 
	C266.359680,317.946106 265.963776,319.532532 265.950928,320.992615 
	C265.937897,322.478058 265.002411,323.039856 263.642639,322.932190 
	C257.149292,322.418060 250.646515,322.441040 244.176712,323.057526 
	C240.441238,323.413452 241.447617,320.155792 240.359467,318.380035 
	C238.126038,319.106232 239.781494,321.634186 237.827255,322.631317 
	C236.575592,320.844513 237.128754,318.328766 234.365280,316.120270 
	C238.970718,316.632202 242.408493,314.428955 245.106598,317.685455 
z"/>
<path fill="#E8E7E2" opacity="1.000000" stroke="none" 
	d="
M226.426880,331.780396 
	C226.726425,330.599640 227.766373,330.094116 226.907028,328.821869 
	C225.456055,326.673737 227.277390,326.070465 228.819595,326.229248 
	C234.459656,326.809814 240.048782,327.704102 245.736984,326.412018 
	C247.385086,326.037628 247.940552,327.633240 247.942856,329.058014 
	C247.945404,330.628967 248.471756,332.951599 246.016785,332.879120 
	C239.476654,332.685974 232.868835,333.982910 226.426880,331.780396 
z"/>
<path fill="#E8E7E2" opacity="1.000000" stroke="none" 
	d="
M203.509308,301.056152 
	C203.742508,300.415039 203.802338,300.076935 203.954178,299.787079 
	C204.968201,297.851685 204.365387,294.384949 207.284653,294.314453 
	C210.074417,294.247162 209.909164,297.652527 211.050735,299.527985 
	C211.280792,299.905914 211.613831,300.221161 211.965622,300.645111 
	C214.681488,298.820007 210.616165,292.983429 216.327515,293.321991 
	C222.853271,293.708832 219.771866,298.940643 221.266678,303.184784 
	C218.392761,301.320953 216.260635,299.989502 214.263458,302.827789 
	C213.872391,303.383545 211.761993,303.383026 210.941574,302.859772 
	C208.546432,301.332214 206.332047,300.834473 203.914566,302.598999 
	C203.735886,302.193176 203.557205,301.787323 203.509308,301.056152 
z"/>
<path fill="#E8E7E2" opacity="1.000000" stroke="none" 
	d="
M289.566284,295.404175 
	C289.553955,297.930206 289.227753,300.125824 289.860962,302.369507 
	C287.746277,303.112732 285.851746,298.351410 284.099274,302.553070 
	C283.799286,303.272308 282.344482,302.650055 282.265839,301.802032 
	C282.026764,299.224640 281.147949,296.357666 282.809387,294.144470 
	C284.536957,291.843201 286.684021,294.073334 288.631989,294.461212 
	C288.911499,294.516815 289.132599,294.865875 289.566284,295.404175 
z"/>
<path fill="#E8E7E2" opacity="1.000000" stroke="none" 
	d="
M235.814331,301.187073 
	C234.196228,297.938843 235.337418,295.787659 237.634903,293.922729 
	C239.063538,292.763062 240.396286,293.151428 241.772873,293.930176 
	C242.628647,294.414276 243.810425,294.866486 243.467209,296.041077 
	C243.056763,297.445770 241.885025,296.799103 241.008728,296.460297 
	C238.709732,295.571442 237.938324,296.598083 237.991547,298.758850 
	C238.012817,299.623077 238.140244,300.525482 239.077454,300.771942 
	C240.228256,301.074585 240.312088,300.287567 240.367661,299.343628 
	C240.452545,297.901611 241.620407,297.992889 242.591888,298.181915 
	C243.829208,298.422577 243.962128,299.471588 243.943573,300.507935 
	C243.925308,301.528870 243.818573,302.664429 242.566696,302.806274 
	C240.289520,303.064209 237.892349,303.609528 235.814331,301.187073 
z"/>
<path fill="#E5E3DE" opacity="1.000000" stroke="none" 
	d="
M272.800903,301.405273 
	C273.042267,299.514099 272.872192,297.841797 273.112885,296.230865 
	C273.567810,293.186707 275.846313,292.725433 278.257721,293.416840 
	C279.622833,293.808289 280.679779,294.979675 278.326874,295.931824 
	C277.981964,296.071411 276.292633,295.391235 277.417175,296.957092 
	C278.704590,298.749756 278.692810,298.772766 276.523743,300.023407 
	C277.123901,301.754364 279.453247,300.426514 280.411652,302.915070 
	C278.082947,302.915070 275.976715,302.915070 273.449463,302.864441 
	C272.664368,302.509613 272.523682,302.118164 272.800903,301.405273 
z"/>
<path fill="#E8E7E2" opacity="1.000000" stroke="none" 
	d="
M250.596863,294.420044 
	C252.635925,296.890289 252.805038,299.679138 254.079193,302.757172 
	C251.349274,302.375031 249.160965,299.584381 247.109680,302.640869 
	C246.751114,303.175140 244.994080,302.607635 245.484222,301.838257 
	C247.092621,299.313568 245.813019,294.911804 250.596863,294.420044 
z"/>
<path fill="#E8E7E2" opacity="1.000000" stroke="none" 
	d="
M224.995880,298.367371 
	C225.293030,296.038574 222.586731,296.346375 222.507965,294.684021 
	C223.724731,293.293213 225.307205,293.001648 227.013046,293.050262 
	C229.233170,293.113525 231.035355,293.478058 228.833801,296.109314 
	C228.127090,296.953949 228.083771,297.873627 227.950790,298.857971 
	C227.767914,300.211639 228.661209,302.502625 226.672394,302.586487 
	C224.090912,302.695404 225.368408,300.168152 224.995880,298.367371 
z"/>
<path fill="#E8E7E2" opacity="1.000000" stroke="none" 
	d="
M296.933807,300.908142 
	C296.342926,303.103363 294.654572,303.497711 294.411224,301.811859 
	C294.052032,299.323425 292.325958,297.385620 292.051056,294.377441 
	C294.326935,294.947540 296.604523,298.535400 298.253448,292.718201 
	C298.998169,296.751038 296.594330,298.320282 296.933807,300.908142 
z"/>
<path fill="#E8E7E2" opacity="1.000000" stroke="none" 
	d="
M272.591370,301.115265 
	C273.024292,301.527435 273.021729,301.896179 273.023804,302.539368 
	C272.536774,302.862732 272.046021,302.939575 271.553223,302.956299 
	C264.351288,303.200653 263.671570,302.219025 266.030121,293.785065 
	C267.365265,297.331390 266.360565,302.572784 272.591370,301.115265 
z"/>
<path fill="#E8E7E2" opacity="1.000000" stroke="none" 
	d="
M260.672821,301.022095 
	C262.738159,301.465332 263.140198,302.326050 261.277283,302.835266 
	C259.795868,303.240173 257.534851,303.732361 256.688049,302.275909 
	C255.307693,299.901855 255.760818,297.156433 256.602783,294.347137 
	C259.574341,295.969971 255.923569,300.584351 260.672821,301.022095 
z"/>
<path fill="#E8E7E2" opacity="1.000000" stroke="none" 
	d="
M263.523529,331.873291 
	C266.435181,331.058350 266.449921,331.057739 266.323883,328.066254 
	C266.291199,327.290466 266.682465,326.820862 267.297028,326.542908 
	C268.454529,326.019379 269.313263,326.640778 269.653961,327.620026 
	C270.199860,329.189301 270.600525,331.270172 269.321625,332.273285 
	C267.647614,333.586426 265.387238,333.548370 263.523529,331.873291 
z"/>
<path fill="#E8E7E2" opacity="1.000000" stroke="none" 
	d="
M254.484100,332.249969 
	C254.156418,331.703308 253.933365,331.332214 254.028809,331.083099 
	C254.609406,329.567383 251.532654,328.979736 253.054520,327.374908 
	C253.632614,326.765320 254.934265,326.906342 255.248367,327.536407 
	C256.072144,329.188782 256.944733,331.057281 254.484100,332.249969 
z"/>
<path fill="#E8E7E2" opacity="1.000000" stroke="none" 
	d="
M273.499390,332.201691 
	C273.211975,331.788147 273.110291,331.615326 273.139374,331.468445 
	C273.416626,330.067383 271.499969,328.742310 272.962158,327.361206 
	C273.192566,327.143555 274.211731,327.264526 274.291748,327.461853 
	C274.993347,329.192749 276.064789,331.036285 273.499390,332.201691 
z"/>
<path fill="#E8E7E2" opacity="1.000000" stroke="none" 
	d="
M260.741272,326.526245 
	C261.761597,327.593109 262.691528,328.814972 261.153931,329.401978 
	C260.279907,329.735687 258.044922,328.951111 257.951141,328.406769 
	C257.705078,326.979065 259.018890,326.339600 260.741272,326.526245 
z"/>
<path fill="#E8E7E2" opacity="1.000000" stroke="none" 
	d="
M260.191711,331.626343 
	C261.689636,334.208557 259.488037,332.656982 258.980652,332.926056 
	C258.577240,333.140015 257.467438,332.959076 257.844299,332.009796 
	C258.183563,331.155334 259.073090,331.054688 260.191711,331.626343 
z"/>
<path fill="#FFFFFF" opacity="1.000000" stroke="none" 
	d="
M165.935516,220.260132 
	C166.941956,223.648972 167.877045,226.658752 168.761307,229.683380 
	C169.284714,231.473755 168.824829,233.062180 167.262085,234.078247 
	C165.429382,235.269821 163.251190,235.780807 161.143021,235.605972 
	C159.656097,235.482681 160.015305,233.791901 160.002655,232.692810 
	C159.958588,228.860962 160.023331,225.027893 159.982254,221.195969 
	C159.956772,218.816879 159.879135,215.532043 162.069473,215.032715 
	C164.801682,214.409836 164.514053,218.223587 165.935516,220.260132 
z"/>
<path fill="#FFFFFF" opacity="1.000000" stroke="none" 
	d="
M118.385895,236.344238 
	C119.473938,230.627640 120.955986,225.477020 123.821335,219.854752 
	C125.985184,225.646042 127.877197,230.696747 129.749771,235.754639 
	C129.859650,236.051453 129.940018,236.465576 129.819412,236.725479 
	C127.851692,240.966354 123.555367,238.263000 120.533669,239.722885 
	C118.439575,240.734634 117.847649,238.664749 118.385895,236.344238 
z"/>
<path fill="#FFFFFF" opacity="1.000000" stroke="none" 
	d="
M244.446472,330.480835 
	C243.581848,330.990082 242.877640,331.894470 242.202164,330.872925 
	C242.026093,330.606628 242.224411,329.803772 242.511993,329.573364 
	C243.427048,328.840088 244.287933,328.814117 244.446472,330.480835 
z"/>
<path fill="#FFFFFF" opacity="1.000000" stroke="none" 
	d="
M239.540710,328.825195 
	C239.563049,330.128021 238.963760,330.743622 237.810745,330.584076 
	C237.654495,330.562469 237.398636,330.022156 237.468765,329.818329 
	C237.764923,328.957703 238.560440,328.770264 239.540710,328.825195 
z"/>
</svg>